<?xml version="1.0" standalone="no"?>
<!DOCTYPE svg PUBLIC "-//W3C//DTD SVG 20010904//EN"
 "http://www.w3.org/TR/2001/REC-SVG-20010904/DTD/svg10.dtd">
<svg version="1.0" xmlns="http://www.w3.org/2000/svg"
 width="28.000000pt" height="28.000000pt" viewBox="0 0 28.000000 28.000000"
 preserveAspectRatio="xMidYMid meet">

<g transform="translate(0.000000,28.000000) scale(0.100000,-0.100000)"
fill="#000000" stroke="none">
<path d="M95 217 c-40 -22 -40 -23 -40 -82 l0 -60 43 -23 42 -23 43 23 42 23
0 60 c0 59 0 60 -40 82 -22 12 -42 23 -45 23 -3 0 -23 -11 -45 -23z m86 -9
c37 -21 39 -24 39 -73 0 -49 -1 -52 -40 -74 l-40 -22 -40 22 c-39 22 -40 25
-40 74 0 49 2 52 38 73 20 12 39 22 41 22 2 0 21 -10 42 -22z"/>
<path d="M104 165 c-8 -20 4 -35 26 -35 33 0 31 -19 -2 -22 -26 -3 -29 -6 -15
-12 24 -11 67 1 67 20 0 8 -15 21 -32 29 -27 11 -30 15 -16 20 9 4 21 4 27 1
5 -4 12 -2 16 4 4 6 -8 10 -30 10 -22 0 -38 -6 -41 -15z"/>
</g>
</svg>
